<!DOCTYPE svg PUBLIC "-//W3C//DTD SVG 1.1//EN" "http://www.w3.org/Graphics/SVG/1.1/DTD/svg11.dtd">
<!-- Uploaded to: SVG Repo, www.svgrepo.com, Transformed by: SVG Repo Mixer Tools -->
<svg fill="#000000" height="173px" width="173px" version="1.1" id="Layer_1" xmlns="http://www.w3.org/2000/svg" xmlns:xlink="http://www.w3.org/1999/xlink" viewBox="0 0 512 512" xml:space="preserve">
<g id="SVGRepo_bgCarrier" stroke-width="0"/>
<g id="SVGRepo_tracerCarrier" stroke-linecap="round" stroke-linejoin="round"/>
<g id="SVGRepo_iconCarrier"> <g> <g> <path d="M0,0v512h512V0H0z M480.653,480.653H31.347V31.347h449.306V480.653z"/> </g> </g> <g> <g> <path d="M262.8,62.694l60.004,60.005l-88.97,88.97l66.496,66.496l88.97-88.97l60.005,60.004V62.694H262.8z M417.959,173.522 l-28.658-28.658l-88.97,88.97l-22.165-22.165l88.97-88.97l-28.657-28.657h79.481V173.522z"/> </g> </g> <g> <g> <path d="M278.165,300.331l-66.497-66.497l-88.97,88.97L62.694,262.8v186.506H249.2l-60.004-60.005L278.165,300.331z M94.041,417.959v-79.481l28.658,28.658l88.97-88.97l22.165,22.165l-88.97,88.97l28.657,28.657H94.041z"/> </g> </g> </g>
</svg>